Coordinates
version=1
nRows=29
nColumns=22
inDegrees=yes

Units are S.I. units (second, meters, Newtons, ...)
If the header above contains a line with 'inDegrees', this indicates whether rotational values are in degrees (yes) or radians (no).

endheader
time	pelvis_tilt	pelvis_list	pelvis_rotation	pelvis_tx	pelvis_ty	pelvis_tz	hip_flexion_r	hip_adduction_r	hip_rotation_r	knee_angle_r	ankle_angle_r	subtalar_angle_r	hip_flexion_l	hip_adduction_l	hip_rotation_l	knee_angle_l	ankle_angle_l	subtalar_angle_l	lumbar_extension	lumbar_bending	lumbar_rotation
      4.05000000	     -4.30419277	     -5.90603425	      8.21927361	     -0.53183491	      0.96973677	     -0.27083343	     13.57284650	      3.06282351	     -7.67606104	    -46.25862545	     11.49197965	      4.40575105	     13.81190748	     -2.67527814	      9.77858327	    -18.41008800	     11.16126912	     -5.93832483	     -0.23818376	      5.82234096	     -3.51293658
      4.06000000	     -4.39520493	     -5.89556437	      8.00373215	     -0.53722781	      0.96968675	     -0.26942587	     12.63007836	      3.30382931	     -7.45911389	    -45.76198586	     11.37076124	      4.56306595	     14.28927563	     -2.68894867	      9.70943032	    -18.51142473	     10.89458524	     -6.08801832	     -0.06980920	      5.78956452	     -3.21156650
      4.07000000	     -4.49258366	     -5.87754816	      7.79447662	     -0.54267593	      0.96958577	     -0.26798247	     11.69474857	      3.52322503	     -7.24783532	    -45.12369622	     11.19733513	      4.73060529	     14.77725207	     -2.69575323	      9.64704208	    -18.61391082	     10.62171349	     -6.27768870	      0.09254357	      5.75079579	     -2.91277022
      4.08000000	     -4.60304198	     -5.85452587	      7.58789381	     -0.54819287	      0.96942220	     -0.26648113	     10.77745493	      3.72458368	     -7.04018908	    -44.33696230	     10.97620160	      4.92671570	     15.28220217	     -2.70097796	      9.58724568	    -18.71333419	     10.33774362	     -6.49467651	      0.25477379	      5.70569257	     -2.61633594
      4.09000000	     -4.71529791	     -5.79707890	      7.39457891	     -0.55378215	      0.96920005	     -0.26497101	      9.86189803	      3.86758325	     -6.84994143	    -43.39690614	     10.76181407	      5.32199292	     15.78038216	     -2.67016194	      9.53731112	    -18.79637605	     10.01167756	     -6.87962461	      0.40042369	      5.62685535	     -2.32803791
      4.10000000	     -4.86241774	     -5.76437965	      7.18580955	     -0.55950047	      0.96886523	     -0.26333465	      8.99613931	      4.04364623	     -6.61994678	    -42.28801377	     10.48045996	      5.64756365	     16.34843325	     -2.67220525	      9.47117705	    -18.91901462	      9.74174894	     -7.07283012	      0.56764752	      5.56903106	     -2.02823503
      4.11000000	     -5.00249805	     -5.68329220	      6.98900985	     -0.56528417	      0.96847498	     -0.26168682	      8.12070894	      4.14166722	     -6.42275848	    -41.01837859	     10.28003721	      6.38277385	     16.89411706	     -2.62873193	      9.39478360	    -19.01513052	      9.39211291	     -7.43827327	      0.70759065	      5.46100548	     -1.72975187
      4.12000000	     -5.16774302	     -5.59732392	      6.78077197	     -0.57121485	      0.96797739	     -0.25993953	      7.28989743	      4.23939497	     -6.18665002	    -39.59257984	     10.08521832	      7.15105579	     17.48160800	     -2.58578857	      9.32681095	    -19.12506238	      9.05926856	     -7.71626950	      0.84989225	      5.34334851	     -1.41717019
      4.13000000	     -5.33868606	     -5.49717896	      6.56417320	     -0.57722907	      0.96739295	     -0.25810391	      6.47567848	      4.31978519	     -5.94615988	    -38.01255157	      9.97845252	      7.97476683	     18.07724148	     -2.54325886	      9.21530608	    -19.22904012	      8.73445811	     -7.97569389	      0.97984380	      5.20984242	     -1.10505263
      4.14000000	     -5.51742508	     -5.36578293	      6.34231969	     -0.58340287	      0.96671967	     -0.25620228	      5.70476134	      4.36894667	     -5.68300657	    -36.32553158	      9.98039722	      8.77600584	     18.68706915	     -2.47247529	      9.12185049	    -19.33611941	      8.39023577	     -8.22561155	      1.08664797	      5.04153882	     -0.77363897
      4.15000000	     -5.69424704	     -5.22585641	      6.10864931	     -0.58967594	      0.96596231	     -0.25420310	      4.96961763	      4.41088815	     -5.42650632	    -34.55052649	     10.13446904	      9.35079709	     19.30108765	     -2.41262619	      8.97123704	    -19.44184944	      8.06820686	     -8.44942019	      1.16990119	      4.86416779	     -0.43779864
      4.16000000	     -5.89334153	     -5.09247458	      5.86759496	     -0.59613515	      0.96509679	     -0.25209922	      4.32997126	      4.46573901	     -5.16955617	    -32.75405210	     10.43048334	      9.50091012	     19.95629151	     -2.36791575	      8.83437352	    -19.55787829	      7.74393428	     -8.55758320	      1.24832022	      4.68959206	     -0.07738415
      4.17000000	     -6.05727249	     -4.91687873	      5.61324359	     -0.60268226	      0.96421075	     -0.24992829	      3.72092310	      4.47408794	     -4.91404274	    -30.97827296	     10.88615539	      9.53909585	     20.56271438	     -2.30338555	      8.63589748	    -19.65509462	      7.47966809	     -8.74115612	      1.26191053	      4.47379056	      0.26899419
      4.18000000	     -6.21076017	     -4.73293523	      5.36222577	     -0.60937975	      0.96327905	     -0.24772244	      3.20450948	      4.45959556	     -4.72221677	    -29.29830014	     11.47792388	      9.31574010	     21.16079390	     -2.24013040	      8.43221215	    -19.74177237	      7.21885952	     -8.91128761	      1.23740738	      4.25278002	      0.61859916
      4.19000000	     -6.34961908	     -4.54693160	      5.10781460	     -0.61620148	      0.96232895	     -0.24546256	      2.79084033	      4.43074885	     -4.60002213	    -27.76232881	     12.15094417	      8.84131160	     21.74138398	     -2.19044837	      8.21086157	    -19.81277589	      6.99424938	     -9.04456174	      1.17403627	      4.03020166	      0.97381444
      4.20000000	     -6.48064748	     -4.36867799	      4.87667722	     -0.62314672	      0.96138668	     -0.24321100	      2.49124903	      4.39635081	     -4.56865215	    -26.38813577	     12.85581597	      8.19637712	     22.31312305	     -2.15195571	      7.99633603	    -19.86382693	      6.80984723	     -9.11166319	      1.08493095	      3.81988832	      1.29489572
      4.21000000	     -6.60121427	     -4.21805359	      4.66390225	     -0.63017979	      0.96048405	     -0.24096719	      2.30485815	      4.38120075	     -4.62070814	    -25.19039872	     13.55846248	      7.48168283	     22.86931494	     -2.14574268	      7.79772191	    -19.89141985	      6.66935516	     -9.10627299	      0.97304484	      3.64224546	      1.58955648
      4.22000000	     -6.70598344	     -4.11140551	      4.48166810	     -0.63728318	      0.95965937	     -0.23875934	      2.22011025	      4.40648297	     -4.75185837	    -24.16295035	     14.23175865	      6.74002107	     23.39808097	     -2.18341827	      7.63403830	    -19.88121971	      6.57354252	     -9.04248443	      0.83644442	      3.51714390	      1.85745651
      4.23000000	     -6.81673193	     -4.01952975	      4.30525424	     -0.64439692	      0.95891669	     -0.23656585	      2.24505679	      4.44541199	     -4.89733814	    -23.29454259	     14.84970990	      6.07603185	     23.90693352	     -2.24592085	      7.43985481	    -19.82373582	      6.56353890	     -8.95604715	      0.70559523	      3.40550071	      2.10673010
      4.24000000	     -6.91365218	     -3.97632121	      4.17494455	     -0.65150763	      0.95829448	     -0.23446664	      2.33801637	      4.53302491	     -5.09822968	    -22.54519322	     15.38632594	      5.38463047	     24.37541031	     -2.34617605	      7.30461258	    -19.71183214	      6.61703479	     -8.83408514	      0.56428811	      3.35402750	      2.30502301
      4.25000000	     -7.02399557	     -3.95282774	      4.06770552	     -0.65858640	      0.95776945	     -0.23241842	      2.51396034	      4.64092845	     -5.28954791	    -21.90409372	     15.84438515	      4.76179864	     24.82491079	     -2.46593618	      7.16301235	    -19.54197265	      6.75227543	     -8.69800362	      0.44502003	      3.32017846	      2.47567233
      4.26000000	     -7.13982428	     -3.95326730	      4.00196142	     -0.66562603	      0.95735178	     -0.23046665	      2.74646117	      4.77148372	     -5.48001063	    -21.34177970	     16.21209778	      4.17571202	     25.24871225	     -2.59665956	      7.05081877	    -19.31561652	      6.96898135	     -8.53800336	      0.33990789	      3.31130504	      2.60900997
      4.27000000	     -7.25429129	     -3.97070857	      3.97176115	     -0.67259789	      0.95704022	     -0.22861041	      3.01661374	      4.91324006	     -5.67022725	    -20.84462048	     16.51440272	      3.67380572	     25.63171007	     -2.73319548	      6.95994619	    -19.02447780	      7.26574389	     -8.37303139	      0.24381814	      3.32047536	      2.70067246
      4.28000000	     -7.37872487	     -4.00221587	      3.98764861	     -0.67950432	      0.95681859	     -0.22686788	      3.32608645	      5.06417000	     -5.84730912	    -20.39740039	     16.74027972	      3.16055082	     25.97966657	     -2.86559041	      6.89935463	    -18.65163448	      7.61540919	     -8.16086731	      0.16952508	      3.34368644	      2.73295444
      4.29000000	     -7.49588693	     -4.04892030	      4.04308588	     -0.68633797	      0.95668641	     -0.22523350	      3.65409483	      5.22208431	     -6.01976377	    -19.99745710	     16.91694352	      2.72616767	     26.28461968	     -2.99638854	      6.85848896	    -18.21967448	      8.00446007	     -7.94349629	      0.09604865	      3.38251542	      2.71468032
      4.30000000	     -7.60207944	     -4.11245574	      4.13858120	     -0.69309254	      0.95663412	     -0.22370862	      3.99391272	      5.38773787	     -6.18811620	    -19.64307374	     17.05976372	      2.37424105	     26.54283494	     -3.12557545	      6.85092038	    -17.73025511	      8.39985344	     -7.72713910	      0.01940536	      3.43896768	      2.63666230
      4.31000000	     -7.72319975	     -4.17150957	      4.25959490	     -0.69973391	      0.95665071	     -0.22227656	      4.35419991	      5.54073340	     -6.33535924	    -19.30172998	     17.09870210	      1.97831663	     26.77411932	     -3.23473733	      6.86139735	    -17.18764805	      8.75637106	     -7.40268875	     -0.02788410	      3.48370413	      2.53802157
      4.32000000	     -7.80993331	     -4.29041827	      4.43760481	     -0.70629231	      0.95673637	     -0.22099105	      4.70286311	      5.74224893	     -6.51776301	    -19.00190981	     17.13997457	      1.73726845	     26.97411594	     -3.37409948	      6.92697108	    -16.65980661	      9.05133097	     -7.13749220	     -0.10209907	      3.60224257	      2.35974727
      4.33000000	     -7.89777287	     -4.41908004	      4.63140918	     -0.71272255	      0.95688362	     -0.21978761	      5.07070668	      5.94333864	     -6.69181104	    -18.74122186	     17.12145065	      1.49978403	     27.15895790	     -3.50989267	      7.01404018	    -16.14795194	      9.25542612	     -6.78691798	     -0.16155354	      3.72726943	      2.15667088
